<svg xmlns="http://www.w3.org/2000/svg" viewBox="0 0 1920 140" preserveAspectRatio="xMidYMax slice">
  <!-- 松林のシルエット — ジグザグした樹形を 1 つの path で連続描画 -->
  <path
    d="M 0 110
       L 18 80 L 30 102 L 44 70 L 56 100 L 72 68 L 88 100 L 104 78 L 122 105 L 138 72
       L 156 95 L 172 80 L 190 100 L 206 65 L 224 98 L 240 82 L 258 102 L 274 75 L 292 100
       L 308 80 L 328 60 L 348 102 L 364 88 L 380 70 L 398 100 L 418 75 L 438 102 L 458 65
       L 478 100 L 498 82 L 516 102 L 536 70 L 556 100 L 574 85 L 594 102 L 614 75 L 638 100
       L 658 80 L 678 105 L 698 70 L 722 100 L 742 85 L 766 102 L 788 75 L 808 100 L 828 82
       L 850 102 L 870 70 L 892 100 L 912 85 L 936 105 L 958 75 L 982 100 L 1006 80 L 1036 102
       L 1060 65 L 1086 100 L 1108 85 L 1132 102 L 1156 75 L 1182 100 L 1206 80 L 1232 105
       L 1260 70 L 1290 100 L 1318 85 L 1350 102 L 1378 75 L 1408 100 L 1432 82 L 1462 102
       L 1486 70 L 1516 100 L 1548 85 L 1578 102 L 1606 75 L 1632 100 L 1656 80 L 1688 105
       L 1712 65 L 1740 100 L 1770 85 L 1802 102 L 1832 75 L 1862 100 L 1888 82 L 1920 102
       L 1920 140 L 0 140 Z"
    fill="#1F1F1F"
    opacity="0.92"
  />

  <!-- 微細なテクスチャ: 個別の松葉が突き出すような小さなアクセント -->
  <g fill="#1F1F1F" opacity="0.75">
    <path d="M 105 78 L 108 60 L 111 78 Z"/>
    <path d="M 285 75 L 288 55 L 291 75 Z"/>
    <path d="M 487 70 L 490 50 L 493 70 Z"/>
    <path d="M 712 85 L 715 65 L 718 85 Z"/>
    <path d="M 945 70 L 948 50 L 951 70 Z"/>
    <path d="M 1175 75 L 1178 55 L 1181 75 Z"/>
    <path d="M 1395 78 L 1398 58 L 1401 78 Z"/>
    <path d="M 1638 80 L 1641 60 L 1644 80 Z"/>
    <path d="M 1855 80 L 1858 60 L 1861 80 Z"/>
  </g>
</svg>
