<svg xmlns="http://www.w3.org/2000/svg" width="400" height="400" viewBox="0 0 400 400">
  <!-- ファンタジー異世界風の濃密な星屑。
       大粒/中粒/小粒の 3 段階 + 金茶アクセントで奥行きを作る。
       タイル時にエッジが目立たないよう、ランダムな分布。 -->

  <!-- 大粒の bright star -->
  <g fill="#F3F0E6">
    <circle cx="58" cy="62" r="1.4" opacity="0.85"/>
    <circle cx="148" cy="98" r="1.3" opacity="0.78"/>
    <circle cx="252" cy="48" r="1.5" opacity="0.88"/>
    <circle cx="335" cy="135" r="1.2" opacity="0.7"/>
    <circle cx="68" cy="218" r="1.3" opacity="0.75"/>
    <circle cx="218" cy="245" r="1.5" opacity="0.85"/>
    <circle cx="318" cy="298" r="1.3" opacity="0.78"/>
    <circle cx="125" cy="338" r="1.4" opacity="0.8"/>
  </g>

  <!-- 中粒 -->
  <g fill="#F3F0E6">
    <circle cx="23" cy="45" r="0.8" opacity="0.6"/>
    <circle cx="92" cy="38" r="0.7" opacity="0.55"/>
    <circle cx="178" cy="68" r="0.9" opacity="0.65"/>
    <circle cx="208" cy="22" r="0.7" opacity="0.5"/>
    <circle cx="285" cy="78" r="0.8" opacity="0.6"/>
    <circle cx="368" cy="42" r="0.7" opacity="0.55"/>
    <circle cx="48" cy="128" r="0.8" opacity="0.6"/>
    <circle cx="115" cy="158" r="0.9" opacity="0.7"/>
    <circle cx="195" cy="115" r="0.7" opacity="0.55"/>
    <circle cx="265" cy="172" r="0.8" opacity="0.65"/>
    <circle cx="355" cy="178" r="0.9" opacity="0.7"/>
    <circle cx="38" cy="195" r="0.7" opacity="0.55"/>
    <circle cx="105" cy="252" r="0.8" opacity="0.6"/>
    <circle cx="172" cy="208" r="0.7" opacity="0.5"/>
    <circle cx="248" cy="195" r="0.9" opacity="0.7"/>
    <circle cx="288" cy="232" r="0.8" opacity="0.6"/>
    <circle cx="375" cy="225" r="0.7" opacity="0.55"/>
    <circle cx="28" cy="285" r="0.8" opacity="0.6"/>
    <circle cx="88" cy="295" r="0.7" opacity="0.55"/>
    <circle cx="158" cy="275" r="0.9" opacity="0.7"/>
    <circle cx="262" cy="285" r="0.8" opacity="0.6"/>
    <circle cx="195" cy="345" r="0.7" opacity="0.55"/>
    <circle cx="338" cy="355" r="0.8" opacity="0.6"/>
    <circle cx="55" cy="368" r="0.7" opacity="0.55"/>
    <circle cx="382" cy="385" r="0.9" opacity="0.65"/>
  </g>

  <!-- 小粒 (dense scatter) -->
  <g fill="#F3F0E6">
    <circle cx="15" cy="15" r="0.4" opacity="0.4"/>
    <circle cx="38" cy="78" r="0.45" opacity="0.45"/>
    <circle cx="75" cy="92" r="0.4" opacity="0.4"/>
    <circle cx="108" cy="125" r="0.45" opacity="0.45"/>
    <circle cx="132" cy="55" r="0.4" opacity="0.4"/>
    <circle cx="165" cy="85" r="0.5" opacity="0.5"/>
    <circle cx="195" cy="148" r="0.4" opacity="0.4"/>
    <circle cx="225" cy="68" r="0.45" opacity="0.45"/>
    <circle cx="245" cy="125" r="0.4" opacity="0.4"/>
    <circle cx="278" cy="32" r="0.5" opacity="0.5"/>
    <circle cx="305" cy="105" r="0.4" opacity="0.4"/>
    <circle cx="328" cy="58" r="0.45" opacity="0.45"/>
    <circle cx="358" cy="92" r="0.4" opacity="0.4"/>
    <circle cx="385" cy="65" r="0.5" opacity="0.5"/>
    <circle cx="22" cy="148" r="0.4" opacity="0.4"/>
    <circle cx="62" cy="172" r="0.45" opacity="0.45"/>
    <circle cx="88" cy="195" r="0.4" opacity="0.4"/>
    <circle cx="138" cy="225" r="0.5" opacity="0.5"/>
    <circle cx="158" cy="182" r="0.4" opacity="0.4"/>
    <circle cx="185" cy="178" r="0.45" opacity="0.45"/>
    <circle cx="215" cy="218" r="0.4" opacity="0.4"/>
    <circle cx="238" cy="148" r="0.5" opacity="0.5"/>
    <circle cx="272" cy="218" r="0.4" opacity="0.4"/>
    <circle cx="302" cy="195" r="0.45" opacity="0.45"/>
    <circle cx="332" cy="245" r="0.4" opacity="0.4"/>
    <circle cx="378" cy="158" r="0.5" opacity="0.5"/>
    <circle cx="15" cy="248" r="0.4" opacity="0.4"/>
    <circle cx="45" cy="278" r="0.45" opacity="0.45"/>
    <circle cx="78" cy="345" r="0.4" opacity="0.4"/>
    <circle cx="115" cy="298" r="0.45" opacity="0.45"/>
    <circle cx="142" cy="368" r="0.4" opacity="0.4"/>
    <circle cx="172" cy="318" r="0.5" opacity="0.5"/>
    <circle cx="202" cy="305" r="0.4" opacity="0.4"/>
    <circle cx="232" cy="378" r="0.45" opacity="0.45"/>
    <circle cx="258" cy="318" r="0.4" opacity="0.4"/>
    <circle cx="298" cy="358" r="0.5" opacity="0.5"/>
    <circle cx="345" cy="295" r="0.4" opacity="0.4"/>
    <circle cx="368" cy="325" r="0.45" opacity="0.45"/>
  </g>

  <!-- 金茶の小星 (アクセント) -->
  <g fill="#C9A84C">
    <circle cx="82" cy="148" r="0.55" opacity="0.55"/>
    <circle cx="218" cy="92" r="0.6" opacity="0.5"/>
    <circle cx="318" cy="178" r="0.55" opacity="0.55"/>
    <circle cx="148" cy="262" r="0.6" opacity="0.5"/>
    <circle cx="288" cy="265" r="0.55" opacity="0.5"/>
    <circle cx="58" cy="332" r="0.55" opacity="0.5"/>
  </g>
</svg>
